<?xml version="1.0" encoding="UTF-8"?>
<svg width="171px" height="80px" viewBox="0 0 171 80" version="1.1" xmlns="http://www.w3.org/2000/svg" xmlns:xlink="http://www.w3.org/1999/xlink">
    <!-- Generator: Sketch 50 (54983) - http://www.bohemiancoding.com/sketch -->
    <title>Shape</title>
    <desc>Created with Sketch.</desc>
    <defs>
        <linearGradient x1="50%" y1="0%" x2="50%" y2="100%" id="linearGradient-1">
            <stop stop-color="#ED1500" offset="0%"></stop>
            <stop stop-color="#D70900" offset="100%"></stop>
        </linearGradient>
    </defs>
    <g id="Page-1" stroke="none" stroke-width="1" fill="none" fill-rule="evenodd">
        <path d="M157.698347,75.7002103 L157.758935,75.6396682 L157.758935,77.7592413 C156.971612,78.4859759 156.547686,78.7282363 155.82095,78.7282363 C154.973131,78.7282363 154.367525,78.4254338 154.367525,77.4564341 C154.367525,76.0030093 155.942125,75.6396706 156.789943,75.6396706 C156.911072,75.6396706 157.395593,75.7002126 157.69835,75.7002126 L157.698347,75.7002103 Z M68.9172289,75.7002103 C68.977817,75.7607523 69.0384053,75.7607523 69.0989006,75.6396682 L69.0989006,77.6987004 C68.4327535,78.485977 67.7060633,78.7282375 67.1005028,78.7282375 C66.3131794,78.7282375 65.707572,78.485977 65.707572,77.5170229 C65.707572,76.063598 67.1609969,75.6396717 68.069402,75.6396717 C68.1905784,75.6396717 68.614465,75.6396717 68.9172207,75.7002138 L68.9172289,75.7002103 Z M61.1655441,76.2452732 C61.1655441,78.2437645 59.6515316,78.4859747 58.3192353,78.4859747 C58.1980589,78.4859747 57.5925462,78.4859747 57.2896982,78.4254327 L57.2896982,74.1256172 C57.6530427,74.1862053 58.2586477,74.1256172 58.4403193,74.1256172 C59.9543785,74.1256172 61.1655347,74.4284653 61.1655347,76.2452837 L61.1655441,76.2452732 Z M47.055,73.3989177 L47.055,78.0014959 C46.6310679,78.48597 45.9043333,78.6676429 45.5409876,78.6676429 C43.4819087,78.6676429 42.9368539,77.2141713 42.9368539,75.7002056 C42.9368539,74.3072749 43.6635885,72.6116399 45.4804,72.6116399 C45.9649209,72.6116399 46.6310667,72.7327695 47.055,73.3989165 L47.055,73.3989177 Z M37.2442363,72.6721831 C37.7287105,72.7327711 38.6977079,73.7622622 38.6977079,74.3072772 L38.6977079,74.6101253 L34.2162114,74.6101253 L34.2162114,74.4284536 C34.579556,73.1566981 35.4274611,72.6116434 36.5175473,72.6116434 C36.6386313,72.6116434 37.0019759,72.6116434 37.2442363,72.6721854 L37.2442363,72.6721831 Z M105.919384,75.5790795 C105.919384,76.7903291 105.555993,78.6676452 103.678635,78.6676452 C101.740732,78.6676452 101.559062,76.7297415 101.559062,75.6396671 C101.559062,74.5495424 101.861818,72.5511013 103.739223,72.5511013 C105.616574,72.5511013 105.919384,74.4284524 105.919384,75.5790795 Z M142.982173,71.4609801 L142.982173,79.818319 L141.528701,79.818319 L141.528701,72.6721947 L140.378034,72.6721947 L140.378034,71.4609801 L142.982168,71.4609801 L142.982173,71.4609801 Z M24.4057399,71.4609801 L24.4057399,79.818319 L22.8917742,79.818319 L22.8917742,72.6721947 L21.7411074,72.6721947 L21.7411074,71.4609801 L24.4057352,71.4609801 L24.4057399,71.4609801 Z M124.511658,76.1846868 L121.301917,76.1846868 L122.997645,71.4004392 L124.511658,76.1846868 Z M158.001355,71.7032838 C158.788632,72.0060396 159.333699,73.5200473 159.333699,74.1861955 L159.333699,78.1225788 C159.394287,78.4859689 159.51537,78.9099022 159.999846,79.2126579 L159.999846,79.9393925 L159.273111,79.9393925 C158.788637,79.8183085 158.061943,79.3943296 157.940815,78.909901 C157.516882,79.6366356 155.942323,79.9999801 155.27614,79.9999801 C153.762174,79.9999801 152.853769,78.7282246 152.853769,77.4564341 C152.853769,75.2156859 155.27614,74.428456 156.729565,74.428456 C156.850741,74.428456 157.395803,74.54954 157.759148,74.6101276 C157.819644,74.5495396 157.819644,74.428456 157.819644,74.3072796 C157.819644,72.9750299 156.790152,72.6116445 155.942339,72.6116445 C155.336734,72.6116445 154.428327,72.7933629 153.943848,73.3383791 C153.701588,72.9750346 153.277655,72.3087965 153.277655,72.1271295 C153.277655,72.0060454 153.822672,71.7032885 154.064979,71.6427009 C154.307239,71.5215712 154.670584,71.4004404 155.09447,71.3398984 C155.276142,71.2793103 155.760663,71.2793103 155.881747,71.2793103 C156.547894,71.2793103 157.395806,71.460982 158.001367,71.7032892 L158.001355,71.7032838 Z M151.642508,72.1271248 C151.460836,72.4299728 151.218667,72.7933629 150.976361,73.1567075 C150.128588,72.6721866 149.704605,72.5511025 148.977916,72.5511025 C146.858297,72.5511025 146.373783,74.367866 146.373783,75.7002091 C146.373783,77.4564318 147.221601,78.728234 149.038457,78.728234 C149.644015,78.728234 150.552423,78.3648439 151.097489,77.9409106 L151.703094,79.1521603 C151.218666,79.5760468 149.522934,79.999979 148.73561,79.999979 C147.161104,79.999979 145.404881,79.0309839 144.859815,76.7903315 C144.859815,76.6691551 144.799227,76.4269414 144.799227,76.305765 L144.799227,75.1551894 C145.041487,72.3087871 147.100516,71.2793003 149.038454,71.2793003 C149.825731,71.2793003 150.915805,71.6426904 151.642495,72.1271189 L151.642508,72.1271248 Z M139.712183,71.4004357 L139.167167,72.8538606 C138.864364,72.7327765 138.258759,72.5511048 138.137584,72.5511048 C137.168681,72.5511048 136.19968,73.641184 136.19968,74.4890085 L136.19968,79.8183225 L134.685715,79.8183225 L134.685715,71.4609836 L136.19968,71.4609836 C136.19968,71.8243737 136.19968,72.248307 136.260268,72.6116504 C136.744742,71.5821133 137.834822,71.2793073 138.561511,71.2793073 C138.743229,71.2793073 139.348834,71.3398953 139.712177,71.4004369 L139.712183,71.4004357 Z M114.21631,71.5215654 C114.034638,72.0060396 113.852966,72.4299728 113.671294,72.8538617 C113.368491,72.7327777 112.762886,72.551106 112.641802,72.551106 C111.672807,72.551106 110.703864,73.6411851 110.703864,74.4890097 L110.703864,79.8183236 L109.189851,79.8183236 L109.189851,71.4609848 L110.703864,71.4609848 C110.703864,71.8243749 110.703864,72.2483082 110.764406,72.6116515 C111.248927,71.5821144 112.339006,71.2793084 113.065741,71.2793084 C113.429086,71.2793084 114.216317,71.5215689 114.216317,71.5215689 L114.21631,71.5215654 Z M107.494159,75.5790771 C107.494159,77.6986969 106.585751,79.999986 103.739445,79.999986 C100.95363,79.999986 99.9241434,77.6986969 99.9241434,75.5790771 C99.9241434,73.3383756 101.195899,71.2792968 103.739445,71.2792968 C106.646341,71.2792968 107.494159,73.520045 107.494159,75.5790771 Z M77.5775525,71.339896 C78.6070441,71.339896 79.5760438,72.8538617 79.5760438,73.7622669 L79.5760438,79.8183166 L78.122619,79.8183166 L78.122619,74.3072866 C78.0620309,73.0355311 77.3352956,72.5511107 76.4268904,72.5511107 C76.2452188,72.5511107 76.1241347,72.4905226 76.0635459,72.5511107 C75.7002014,72.6116527 74.428405,73.1567156 74.428405,73.6411898 L74.428405,79.8183213 L72.9749802,79.8183213 L72.9749802,71.4609825 L74.0044717,71.4609825 C74.1256481,71.7637849 74.3073198,72.1271295 74.4284038,72.4299775 C75.0340544,71.5821121 76.0029571,71.2793108 76.8508681,71.2793108 C76.9719522,71.2793108 77.3352967,71.3398988 77.5775572,71.3398988 L77.5775525,71.339896 Z M70.3103466,72.9144494 C70.3708427,73.2172051 70.613149,73.7017727 70.613149,73.8834444 L70.613149,77.8198277 C70.7342331,78.1831722 70.6736911,78.8493192 71.2793416,79.2126649 L71.2793416,79.9393995 L70.613149,79.9393995 C70.1891702,79.8789034 69.4019344,79.515513 69.2807592,78.909908 C68.9174147,79.6366426 67.1611862,79.9999871 66.5555789,79.9999871 C65.1021073,79.9999871 64.133208,78.7282317 64.133208,77.4564411 C64.133208,75.2156929 66.5555789,74.428463 68.0090037,74.428463 C68.1301801,74.428463 68.7357383,74.549547 69.0990828,74.6101346 C69.1596709,74.5495466 69.1596709,74.5495466 69.1596709,74.3678742 C69.1596709,73.1567063 68.3118522,72.6116515 67.2822731,72.6116515 C66.555584,72.6116515 65.9500234,72.7327812 65.2837818,73.3383862 C64.981026,73.1567145 64.6782691,72.4299787 64.5570927,72.1271365 C65.1626977,71.6427079 66.3739497,71.2793178 67.2217672,71.2793178 C68.0695859,71.2793178 69.886395,71.5215782 70.310333,72.9144587 L70.3103466,72.9144494 Z M40.211919,74.852353 C40.211919,74.9735294 40.211919,75.457958 40.1513769,75.7607605 L34.0953272,75.7607605 L34.0953272,76.2452814 C34.2164568,77.9409164 35.4882111,78.7282398 36.7599549,78.7282398 C37.4261931,78.7282398 38.0317104,78.5465214 38.8190338,78.0015052 C39.0612943,78.304261 39.242966,78.6676522 39.4851808,79.0309967 C39.0612943,79.5760597 37.1838918,79.9999918 36.4572027,79.9999918 C33.7925749,79.9999918 32.5208194,77.8198312 32.5208194,75.7002114 C32.5208194,73.4594632 33.9136567,71.2793026 36.4572027,71.2793026 C38.6979509,71.2793026 40.2119166,72.5511048 40.2119166,74.8523472 L40.211919,74.852353 Z M18.6525463,71.5215771 C18.834218,71.5821191 19.3186933,72.06664 19.500365,72.3088082 C19.5609531,72.3088082 20.045428,73.5200578 20.045428,73.7622797 L20.045428,79.8183295 L18.5919564,79.8183295 L18.5919564,74.3072994 C18.3497883,72.9144622 17.8652218,72.5511235 16.8963214,72.5511235 C16.2301288,72.5511235 15.5639783,72.793384 14.8978301,73.6412027 L14.8978301,79.8183342 L13.4444052,79.8183342 L13.4444052,71.4609953 L14.4738968,71.4609953 C14.5949808,71.7637978 14.7766525,72.1271423 14.8978289,72.4299904 C15.5033871,71.5821249 16.4723822,71.2793236 17.3201997,71.2793236 C17.4413761,71.2793236 18.2286072,71.3399117 18.6525428,71.5215841 L18.6525463,71.5215771 Z M60.5601237,71.1582325 C60.5601237,72.7327859 59.2278274,72.9144552 58.198247,72.9144552 L57.2898863,72.9144552 L57.2898863,69.6442201 L58.2588358,69.6442201 C59.1672433,69.6442201 60.5601249,69.6442201 60.5601249,71.1582325 L60.5601237,71.1582325 Z M28.7660611,71.4609883 L31.0673969,71.4609883 L31.0673969,72.611655 L28.7660611,72.611655 L28.7660611,77.3353617 C29.0689092,78.4254408 29.4927957,78.7282457 30.2195327,78.7282457 C30.4012044,78.7282457 31.0673981,78.5465273 31.4307824,78.4254432 C31.4912785,78.8493297 31.612454,79.3338507 31.6729505,79.7577395 C31.0068035,79.8789159 29.7956461,80 29.6139651,80 C28.3422096,80 27.2520884,78.7888321 27.2520884,77.63817 L27.2520884,72.6116656 L26.2831389,72.6116656 L26.2831389,71.4609988 L27.2520884,71.4609988 L27.2520884,69.7048229 C27.7365626,69.5231045 28.2816255,69.280844 28.7660541,69.15976 L28.7660541,71.4610023 L28.7660611,71.4609883 Z M4.72370666,68.3724225 L4.72370666,76.1241074 C4.96592038,77.9409176 5.93487455,78.6071125 7.14607749,78.6071125 C8.17566017,78.6071125 9.14456877,78.1225916 9.62908267,76.7297614 L9.62908267,68.3724225 L11.203636,68.3724225 L11.203636,76.9114307 C10.8402459,79.45493 8.72067754,79.9999965 7.14607749,79.9999965 C5.874322,79.9999965 4.17868696,79.636652 3.45195117,78.0015052 C3.33077479,77.6381607 3.20969072,77.0325101 3.20969072,76.9114261 L3.20969072,68.3724179 L4.72370316,68.3724179 L4.72370666,68.3724225 Z M143.224523,69.1597459 C143.224523,69.7653042 142.861133,70.1286487 142.316115,70.1286487 C141.710465,70.1286487 141.407708,69.5836325 141.407708,69.2202412 C141.407708,68.614683 141.710464,68.3118338 142.316115,68.3118338 C142.861132,68.3118338 143.224523,68.6146818 143.224523,69.1597448 L143.224523,69.1597459 Z M24.6480903,69.1597459 C24.6480903,69.7653042 24.1030274,70.1286487 23.6790952,70.1286487 C23.073537,70.1286487 22.7706878,69.5836325 22.7706878,69.2202412 C22.7706878,68.614683 23.2552087,68.3118338 23.6790952,68.3118338 C24.2241582,68.3118338 24.6480903,68.6146818 24.6480903,69.1597448 L24.6480903,69.1597459 Z M62.1953464,71.0370503 C62.1953464,71.8849613 61.7715054,72.7327788 60.5602523,73.3383862 L60.4997102,73.4594702 C62.2559329,73.8228603 62.9220811,75.1551987 62.9220811,76.4874951 C62.9220811,76.6086248 62.800997,77.1536877 62.7404094,77.4564446 C62.5587377,78.7888345 60.4391203,79.8183213 59.4096334,79.8183213 L55.6548728,79.8183213 L55.6548728,68.251335 L58.5012283,68.251335 C60.1363692,68.251335 62.1953546,68.7358091 62.1953546,71.0370562 L62.1953464,71.0370503 Z M123.239961,68.1907415 L127.600282,79.8183155 L125.844013,79.8183155 C125.601799,79.0309921 125.29895,78.1831746 124.996194,77.3958512 L120.878141,77.3958512 C120.514751,78.1831746 120.211903,79.0309921 119.969734,79.8183155 L118.213418,79.8183155 C119.727477,75.9424263 121.301983,72.0666307 122.816043,68.1907415 L123.239975,68.1907415 L123.239961,68.1907415 Z M133.595686,68.2513296 C133.535144,68.3724137 133.171799,69.3414087 133.111211,69.3414087 C132.92954,69.3414087 132.505653,69.2202324 132.32398,69.2202324 C131.233901,69.2202324 130.74938,70.1892274 130.74938,71.0370426 C130.74938,71.158219 130.809968,71.2793031 130.809968,71.4609747 L132.50565,71.4609747 L132.50565,72.6721894 L130.809968,72.6721894 L130.809968,79.8183136 L129.356497,79.8183136 L129.356497,72.6721894 L128.145329,72.6721894 L128.145329,71.4609747 L129.356497,71.4609747 C129.295909,69.4624835 130.325492,68.0090703 132.202806,68.0090703 C132.323982,68.0090703 133.111213,68.1301544 133.59569,68.2513308 L133.595686,68.2513296 Z M99.5003456,68.2513296 L99.1369555,69.3414087 C98.8947874,69.2808207 98.4708085,69.2202324 98.2891368,69.2202324 C97.6229898,69.2202324 96.7146303,69.8864705 96.7146303,70.6131631 L96.7146303,71.4609818 L98.4708062,71.4609818 L98.4708062,72.6721964 L96.7146303,72.6721964 L96.7146303,79.8183206 L95.2611587,79.8183206 L95.2611587,72.6721964 L94.049909,72.6721964 L94.049909,71.4609818 L95.2611587,71.4609818 C95.2611587,69.4019496 96.2906502,68.0090773 98.1074675,68.0090773 C98.2891392,68.0090773 99.0764626,68.1301614 99.5003515,68.2513378 L99.5003456,68.2513296 Z M83.2096994,68.0090691 L83.2096994,75.2156875 L86.3587592,71.4609736 L88.1149819,71.4609736 L85.510895,74.6101269 L88.7206359,79.8183124 L87.085495,79.8183124 L84.4814549,75.6396722 C84.1181103,76.0636043 83.6335894,76.5480329 83.2096994,76.9720153 L83.2096994,79.8183241 L81.6956869,79.8183241 L81.6956869,68.0090575 L83.2096994,68.0090575 L83.2096994,68.0090691 Z M48.5692461,68.0090691 L48.5692461,79.8183358 L47.1157746,79.8183358 C47.1157746,79.6366641 47.1157746,79.4549457 47.0552785,79.2732729 C46.3285438,79.8183358 45.6018536,79.9394199 44.8751178,79.9394199 C42.2104433,79.9394199 41.3020265,77.6987184 41.3020265,75.8213673 C41.3020265,73.9439694 42.573782,71.2793299 45.1778689,71.2793299 C45.6018478,71.2793299 46.6313405,71.4610016 47.1157726,71.8243929 L47.1157726,68.0090913 L48.5692442,68.0090913 L48.5692461,68.0090691 Z M56.1393084,39.4246891 C59.7123529,40.2119201 61.2868595,42.2104103 61.2868595,44.9962132 C61.2868595,45.1172973 61.2263634,46.2679687 61.0446914,46.8735176 C60.8630197,47.4791682 60.5299,48.0141094 59.9546122,48.7509155 C58.1655426,51.0420852 54.74638,52.8689681 52.6268187,52.8689681 L46.5707689,52.8689681 C47.539764,48.448106 48.3875791,43.9061154 49.3565368,39.5458876 C49.3565368,39.4247113 49.4171249,39.364216 49.5382552,39.3036272 L54.1408334,39.1825431 C54.2619175,39.1825431 55.4731298,39.3036272 56.1393247,39.4247113 L56.1393084,39.4246891 Z M96.2906047,44.5116994 L85.3292256,44.5116994 L93.3231674,32.2786116 L96.2906047,44.5116994 Z M62.3164399,28.5844619 C62.3164399,28.7055915 62.0741794,29.8562641 62.0135918,30.4618597 C61.8925077,31.7336152 60.7418363,33.6109664 59.0462013,34.6405 C58.4405507,35.0038901 55.9576355,36.4573102 55.5942968,36.4573102 L50.2043485,36.4573102 C50.3860669,35.4883151 50.5677386,34.4588189 50.7494114,33.4898262 C50.8705878,32.8842212 51.0522595,32.2180707 51.112756,31.6124751 C51.2339324,31.0069168 51.415604,30.3406728 51.4761461,29.735124 C51.5973224,29.129519 51.7789941,28.4633685 51.8394906,27.8577728 C51.960667,27.2521223 52.0110873,26.9190949 52.1423386,25.980375 C52.2735432,24.9003708 52.1927597,24.8600242 52.8084857,24.8902958 L57.3504762,24.7692118 C59.2883799,24.7692118 62.3164399,25.7987033 62.3164399,28.5844666 L62.3164399,28.5844619 Z M98.2891193,19.9849128 L107.373147,57.3504646 L99.1975361,57.3504646 L97.7441113,50.022671 L81.9379322,50.022671 L77.0930503,57.3504646 L70.3103582,57.3504646 L95.6244097,19.9849128 L98.2890375,19.9849128 L98.2891193,19.9849128 Z M62.1347355,19.9849128 C67.5851312,20.5905634 70.1286772,23.1340662 70.1286772,27.373294 C70.1286772,31.9153313 66.9795239,35.3066481 61.4685405,37.1234701 C61.5291286,37.1840582 61.6502122,37.1840582 61.710801,37.1840582 C65.7683595,37.7896164 68.6752091,40.1514019 68.6752091,43.845575 C68.6752091,49.7199437 65.0416237,55.1703395 57.1687637,56.9265387 C56.8054191,56.9871268 54.3829957,57.4716017 53.5351782,57.4716017 L38.092291,57.4716017 L45.9045635,19.9848747 L62.1346805,19.9848747 L62.1347355,19.9849128 Z M12.899271,19.9849128 C12.293666,23.1946538 11.6275155,26.2226319 11.0218732,29.2506101 C10.5374446,31.4913583 10.0529237,33.853235 9.62903593,36.1544773 C9.02343095,39.5458876 8.05443588,42.8160877 8.05443588,46.2074045 C8.05443588,49.9016243 9.26568556,53.2324003 14.049898,53.2324003 C18.6524762,53.2324003 23.1945136,50.2043754 24.6479384,44.0272439 C26.5253362,36.0333956 28.0998428,27.9788312 29.795583,19.9848894 L36.6994503,19.9848894 L36.6994503,20.1665611 C34.7614648,28.9478263 32.9446429,37.7290213 30.9461633,46.4496638 C29.8864469,49.2051554 29.4170653,49.644179 28.5843333,50.7494442 C24.9507011,55.7759019 20.1059595,57.4110545 15.9273076,57.8955684 C15.442879,57.9560645 14.5949645,58.0772401 14.4132951,58.0772401 L10.7191688,58.0772401 C9.9924342,58.016652 9.20515638,57.8955684 8.5390082,57.774392 C7.87281562,57.6533079 7.14607749,57.4716363 6.47992931,57.2899178 C1.81681026,56.1392511 0,51.6578528 0,48.3270301 L0,46.8735585 C0.0605420351,46.449672 0.0605420351,45.9651511 0.121129642,45.4807213 C1.87735229,37.0023942 3.63362168,28.4633743 5.38985601,19.9849654 L12.8993306,19.9849654 L12.899271,19.9849128 Z M138.440065,57.108231 C137.47107,57.229315 135.593756,57.4716211 135.412087,57.4716211 L120.332609,57.4716211 L130.506711,9.68967495 C135.835978,20.1060343 141.165292,30.6435221 146.434065,41.180858 C147.342473,43.4821471 148.190288,45.9650587 148.190288,48.3269354 C148.190288,53.5956618 144.496162,56.1391611 138.440112,57.1081539 L138.440065,57.108231 Z M160.12066,47.7819461 C157.032094,41.786484 153.943528,35.7305627 150.915503,29.7351356 C149.219868,26.4043129 147.52414,22.9523968 145.828446,19.6821617 C145.283383,18.531495 144.677825,17.5020011 144.193305,16.4118799 C143.648242,15.200712 142.437083,11.5065506 142.437083,9.75031631 L142.437083,8.47851407 C142.497671,7.8729091 142.558167,7.14617097 142.739838,6.60116295 C144.556649,0.847969428 151.278847,0.302902981 155.275806,5.84258508e-05 L170.355303,0 L160.12066,47.7819461 Z" id="Shape" fill="url(#linearGradient-1)"></path>
    </g>
</svg>